<svg width="26" height="24" viewBox="0 0 26 24" fill="white" xmlns="http://www.w3.org/2000/svg">
	<path d="M5.33685 6.61888L7.02106 7.46099C7.33108 7.5964 7.66843 7.65741 8.0062 7.63914C8.34397 7.62086 8.67276 7.52381 8.96632 7.35572L10.5579 6.31994C10.8318 6.12116 11.0547 5.86032 11.2084 5.5588C11.3621 5.25728 11.4422 4.92364 11.4421 4.5852L11.3411 2.68625C11.3042 2.35055 11.189 2.02815 11.0047 1.74512C10.8204 1.46208 10.5722 1.22629 10.28 1.05678L8.5958 0.193622C8.28641 0.0566111 7.94906 -0.00562022 7.61112 0.0119377C7.27319 0.0294956 6.94409 0.126337 6.65053 0.294674L5.059 1.33046C4.78561 1.52975 4.56304 1.79067 4.40944 2.09211C4.2558 2.39349 4.17538 2.72693 4.17474 3.0652L4.2758 4.96415C4.30851 5.30444 4.42182 5.63202 4.60632 5.91977C4.79083 6.20756 5.04127 6.44722 5.33685 6.61888Z" fill="white" />
	<path d="M15.4968 9.0779L13.8126 8.21474C13.5033 8.07937 13.1667 8.0184 12.8296 8.03668C12.4925 8.05495 12.1644 8.152 11.8715 8.32L10.2631 9.35579C9.99074 9.556 9.76889 9.81714 9.61537 10.1184C9.46185 10.4195 9.38084 10.7525 9.37891 11.0905L9.48 12.9895C9.51684 13.3252 9.63204 13.6476 9.81634 13.9307C10.0007 14.2137 10.2489 14.4495 10.541 14.619L12.2252 15.4611C12.5339 15.598 12.8706 15.6603 13.2079 15.6427C13.5451 15.6252 13.8735 15.5283 14.1663 15.36L15.7621 14.3242C16.0346 14.1231 16.2564 13.8612 16.4099 13.5593C16.5634 13.2575 16.6443 12.9239 16.6463 12.5853L16.5452 10.6905C16.5066 10.3591 16.3919 10.0411 16.21 9.76135C16.0281 9.4816 15.784 9.24771 15.4968 9.0779Z" fill="white" />
	<path d="M20.6926 17.0864L19.0084 16.2443C18.699 16.1072 18.3617 16.045 18.0237 16.0625C17.6858 16.0801 17.3567 16.1769 17.0631 16.3453L15.4716 17.3811C15.1987 17.5808 14.9765 17.8419 14.8229 18.1432C14.6693 18.4445 14.5886 18.7777 14.5873 19.1158L14.6884 21.0148C14.7287 21.3451 14.8447 21.6617 15.0273 21.9399C15.2098 22.2181 15.4541 22.4505 15.7411 22.619L17.4253 23.4611C17.7353 23.5965 18.0726 23.6575 18.4104 23.6392C18.7481 23.6209 19.0769 23.5239 19.3705 23.3558L20.9663 22.3201C21.2389 22.1203 21.4606 21.8592 21.6135 21.5578C21.7664 21.2564 21.8462 20.9233 21.8463 20.5853L21.7579 18.7201C21.7215 18.3831 21.6061 18.0595 21.421 17.7755C21.2359 17.4917 20.9863 17.2555 20.6926 17.0864Z" fill="white" />
	<path d="M8.28421 12.3705L8.20421 10.8926C8.20614 10.5545 8.28711 10.2216 8.44067 9.92043C8.59419 9.61921 8.816 9.35808 9.08842 9.15787L12.1916 7.14102C12.4844 6.97302 12.8125 6.87597 13.1496 6.8577C13.4867 6.83942 13.8234 6.90043 14.1326 7.03576L15.4547 7.70944C15.7642 7.84645 16.1015 7.90873 16.4394 7.89117C16.7774 7.87361 17.1064 7.77673 17.4 7.60839L18.9916 6.56839C19.2647 6.3689 19.4871 6.10793 19.6407 5.80654C19.7943 5.50519 19.8748 5.17193 19.8758 4.83365L19.7747 2.93892C19.7385 2.60245 19.6236 2.27921 19.4392 1.99542C19.2549 1.71159 19.0064 1.47517 18.7137 1.30523L17.0295 0.442075C16.7195 0.306707 16.3821 0.245696 16.0443 0.26397C15.7066 0.282243 15.3778 0.379296 15.0842 0.547338L13.4589 1.56629C13.1863 1.76603 12.9646 2.02717 12.8117 2.32856C12.6588 2.62995 12.5791 2.96309 12.5789 3.30102L12.6547 4.77892C12.6546 5.1169 12.5748 5.45003 12.4219 5.75142C12.269 6.05281 12.0473 6.31395 11.7747 6.51365L8.67158 8.5305C8.37802 8.69883 8.04897 8.79572 7.71103 8.81328C7.37305 8.83083 7.03574 8.76856 6.72631 8.63155L5.40842 7.96208C5.09899 7.82507 4.76168 7.76283 4.4237 7.78039C4.08577 7.79795 3.75671 7.89479 3.46315 8.06313L1.87158 9.09892C1.59819 9.2982 1.37566 9.55913 1.22202 9.86056C1.06838 10.162 0.987997 10.4954 0.987366 10.8337L1.08842 12.7326C1.12429 13.0692 1.23911 13.3926 1.42345 13.6764C1.60783 13.9603 1.85654 14.1966 2.14947 14.3663L3.83368 15.2084C4.14366 15.3438 4.48101 15.4048 4.81878 15.3865C5.15654 15.3683 5.48539 15.2712 5.77894 15.1031L7.37052 14.0673C7.64404 13.8748 7.86892 13.6212 8.02753 13.3267C8.1861 13.0322 8.27398 12.7049 8.28421 12.3705Z" fill="white" />
	<path d="M24.9538 10.9474C24.9162 10.6113 24.8008 10.2886 24.6166 10.005C24.4324 9.72134 24.1845 9.48463 23.8927 9.31372L22.2085 8.47162C21.8984 8.33654 21.5611 8.2757 21.2234 8.29398C20.8857 8.31225 20.5569 8.40913 20.2632 8.57688L18.6716 9.61267C18.3987 9.81242 18.1766 10.0734 18.023 10.3747C17.8694 10.676 17.7887 11.0092 17.7874 11.3474L17.8674 12.8295C17.8661 13.1677 17.7855 13.5008 17.6319 13.8021C17.4783 14.1035 17.2561 14.3645 16.9832 14.5642L13.8842 16.5769C13.5907 16.7449 13.2619 16.842 12.9241 16.8602C12.5863 16.8785 12.249 16.8175 11.939 16.6821L10.6169 16.0085C10.3076 15.8731 9.97093 15.8121 9.63384 15.8304C9.29674 15.8487 8.96866 15.9457 8.67582 16.1137L7.0674 17.1453C6.79502 17.3455 6.57321 17.6066 6.41965 17.9078C6.26613 18.209 6.18516 18.5419 6.18323 18.88L6.28424 20.7789C6.32112 21.1147 6.43632 21.4371 6.62062 21.7201C6.80495 22.0032 7.05316 22.2389 7.34533 22.4085L9.02954 23.2716C9.33822 23.4086 9.67485 23.4708 10.0121 23.4533C10.3494 23.4357 10.6778 23.3388 10.9706 23.1705L12.5663 22.1347C12.8385 21.9343 13.0602 21.6731 13.2137 21.372C13.3672 21.0708 13.4483 20.738 13.4506 20.4L13.3706 18.9179C13.3715 18.5797 13.4521 18.2464 13.6057 17.9451C13.7593 17.6437 13.9816 17.3827 14.2548 17.1832L17.3537 15.1664C17.6473 14.998 17.9764 14.9011 18.3143 14.8836C18.6522 14.866 18.9895 14.9282 19.299 15.0653L20.6169 15.7348C20.9263 15.8718 21.2636 15.934 21.6016 15.9165C21.9395 15.8989 22.2686 15.8021 22.5621 15.6337L24.158 14.5979C24.4303 14.3979 24.6519 14.1368 24.8047 13.8354C24.9576 13.5341 25.0375 13.201 25.0379 12.8632L24.9538 10.9474Z" fill="white" />
</svg>
