<?xml version="1.0"?>
<svg width="78.6" height="78.5" xmlns="http://www.w3.org/2000/svg" xmlns:svg="http://www.w3.org/2000/svg" enable-background="new 0 0 78.6 78.5" version="1.0" xml:space="preserve">
 <g class="layer">
  <title>Layer 1</title>
  <path d="m39.4,0c21.5,0.1 39.2,17.8 39.2,39c0.3,21.7 -17,39.5 -38.7,39.8s-39.6,-17 -39.9,-38.7c0,-0.4 0,-0.8 0,-1.2c0.1,-21.3 18.1,-39 39.4,-38.9zm-17.7,57.8l2.2,0c10.7,0.2 21.5,0.3 32.2,0.6c7.1,0.3 13.7,-3.7 16.7,-10.2c0.2,-0.6 0.4,-1.2 0.5,-1.8c-0.6,0.4 -0.8,0.6 -1,0.8c-4.4,4.1 -10.2,6.2 -16.1,5.9c-10.3,-0.1 -20.7,0 -31,0l-2.6,0c0.7,-2.2 1.4,-3.5 3.9,-3.4c9.6,0.1 19.2,0.1 28.7,0c2.5,0 5.1,-0.2 7.5,-0.8c8.9,-2.5 13.6,-10.7 11.2,-19.4c-1.9,-6.5 -5.5,-12.3 -10.5,-16.8c-1.5,-1.4 -3.2,-2.6 -4.8,-3.8c-0.1,0.6 0.1,1.3 0.4,1.8c3.9,7 7.8,14 11.7,20.9c1,1.9 0.8,4.1 -0.4,5.9c-0.3,-0.5 -0.7,-1.1 -0.9,-1.6c-4.7,-8.3 -9.3,-16.6 -14,-24.8c-3.1,-5.4 -10.1,-8.7 -15.3,-7.3c6.4,4 7.7,5.3 10.7,10.6c5,8.8 9.9,17.7 14.9,26.5c1.5,2.6 1.4,2.7 -1.6,3.9l-2.2,-3.9c-4.9,-8.9 -9.9,-17.7 -14.9,-26.5c-3.7,-6.6 -11.8,-10.1 -18.4,-8c8.1,1.6 12.5,6.9 16,13.5c4.2,7.8 8.6,15.4 13,23.1c0.6,1 1.1,2 1.8,3.3c-1.9,-0.1 -3.5,0.6 -4.5,-1.4c-4.7,-8.6 -9.6,-17 -14.3,-25.6c-4,-7.3 -10.8,-10.6 -18.6,-10.2c-1.7,0.1 -3.3,0.7 -4.7,1.8c-7.5,5.6 -11.9,13.3 -13.5,22.6c-0.3,1.4 -0.3,2.9 -0.5,4.9c4.6,-7.6 8.9,-14.7 13.3,-21.7c1.4,-2.2 3.6,-3.6 6.2,-4c-0.5,0.9 -0.9,1.6 -1.3,2.3c-4.7,7.9 -9.6,15.8 -14.2,23.8c-1.2,2.2 -2,4.5 -2.4,6.9c-0.7,3.3 1.3,8.8 3.4,10.6c-0.7,-5.6 0.9,-10.4 3.7,-15.1c5.3,-8.6 10.3,-17.2 15.5,-25.9c1.5,-2.4 1.8,-2.5 4.1,-0.5c-0.3,0.5 -0.5,0.9 -0.8,1.4c-5.5,9.2 -10.9,18.3 -16.5,27.5c-1.8,2.8 -2.8,6.1 -3,9.5c-0.2,4.4 1.6,9.3 4.2,11.3c-1.9,-7 -0.4,-13.1 3.4,-19c4.2,-6.6 8,-13.5 12,-20.1c1.5,-2.5 3,-4.9 4.4,-7.3c2.3,2.2 2.4,2.5 0.9,4.9c-5,8.6 -10.2,17.3 -15.4,26c-2.3,3.8 -3.2,8.2 -2.5,12.6c0.7,4.6 2.4,8.8 7,10.7c9.9,4.2 19.9,3.8 29.6,-0.8c0.4,-0.3 0.8,-0.6 1.1,-0.9l-2.7,0c-7.5,0.1 -14.9,0.1 -22.4,0.2c-2.5,0 -4.1,-1.3 -6,-3.3c1.1,-0.1 1.8,-0.1 2.4,-0.1l13.8,0c5.3,0 10.7,0.1 16,-0.2s11,-4.8 12.5,-9.4c-6.7,3.3 -9.1,4 -13.4,3.9l-32,-0.6c-2.8,0 -3,-0.2 -2.5,-3.3z" fill="#007fff" id="svg_1"/>
 </g>
</svg>